<mxfile host="app.diagrams.net" agent="Mozilla/5.0 (Windows NT 10.0; Win64; x64) AppleWebKit/537.36 (KHTML, like Gecko) Chrome/128.0.0.0 Safari/537.36" version="24.7.14" pages="2">
  <diagram name="Сторінка-1" id="fewikI8X6LGk-WQhsJmm">
    <mxGraphModel dx="111" dy="128" grid="0" gridSize="10" guides="1" tooltips="1" connect="1" arrows="1" fold="1" page="0" pageScale="1" pageWidth="827" pageHeight="1169" math="0" shadow="0">
      <root>
        <mxCell id="0" />
        <mxCell id="1" parent="0" />
      </root>
    </mxGraphModel>
  </diagram>
  <diagram id="VZT9Cx_g4fa2YN5iG6D4" name="Сторінка-2">
    <mxGraphModel dx="794" dy="1252" grid="1" gridSize="10" guides="1" tooltips="1" connect="1" arrows="1" fold="1" page="1" pageScale="1" pageWidth="827" pageHeight="1169" math="0" shadow="0">
      <root>
        <mxCell id="0" />
        <mxCell id="1" parent="0" />
        <mxCell id="3RPo9nHE_TcLEaqS_kai-4" style="edgeStyle=none;curved=1;rounded=0;orthogonalLoop=1;jettySize=auto;html=1;exitX=0.5;exitY=1;exitDx=0;exitDy=0;entryX=0.5;entryY=0;entryDx=0;entryDy=0;fontSize=12;startSize=8;endSize=8;" edge="1" parent="1" source="3RPo9nHE_TcLEaqS_kai-1" target="3RPo9nHE_TcLEaqS_kai-3">
          <mxGeometry relative="1" as="geometry" />
        </mxCell>
        <mxCell id="3RPo9nHE_TcLEaqS_kai-1" value="&lt;font style=&quot;font-size: 16px;&quot;&gt;Заходимо в бібліотеку&lt;/font&gt;" style="ellipse;whiteSpace=wrap;html=1;" vertex="1" parent="1">
          <mxGeometry x="354" y="90" width="120" height="110" as="geometry" />
        </mxCell>
        <mxCell id="3RPo9nHE_TcLEaqS_kai-7" style="edgeStyle=none;curved=1;rounded=0;orthogonalLoop=1;jettySize=auto;html=1;exitX=0.5;exitY=1;exitDx=0;exitDy=0;entryX=0.5;entryY=0;entryDx=0;entryDy=0;fontSize=12;startSize=8;endSize=8;" edge="1" parent="1" source="3RPo9nHE_TcLEaqS_kai-3">
          <mxGeometry relative="1" as="geometry">
            <mxPoint x="418" y="420" as="targetPoint" />
          </mxGeometry>
        </mxCell>
        <mxCell id="3RPo9nHE_TcLEaqS_kai-10" style="edgeStyle=none;curved=1;rounded=0;orthogonalLoop=1;jettySize=auto;html=1;exitX=1;exitY=0.5;exitDx=0;exitDy=0;entryX=0;entryY=0.5;entryDx=0;entryDy=0;fontSize=12;startSize=8;endSize=8;" edge="1" parent="1" source="3RPo9nHE_TcLEaqS_kai-3" target="3RPo9nHE_TcLEaqS_kai-9">
          <mxGeometry relative="1" as="geometry" />
        </mxCell>
        <mxCell id="3RPo9nHE_TcLEaqS_kai-3" value="" style="rhombus;whiteSpace=wrap;html=1;" vertex="1" parent="1">
          <mxGeometry x="343" y="230" width="150" height="130" as="geometry" />
        </mxCell>
        <mxCell id="3RPo9nHE_TcLEaqS_kai-5" value="Чи є у вас читацький квиток?" style="text;html=1;align=center;verticalAlign=middle;whiteSpace=wrap;rounded=0;fontSize=16;" vertex="1" parent="1">
          <mxGeometry x="388" y="280" width="60" height="30" as="geometry" />
        </mxCell>
        <mxCell id="3RPo9nHE_TcLEaqS_kai-8" value="Так&lt;div&gt;&lt;br&gt;&lt;/div&gt;" style="text;html=1;align=center;verticalAlign=middle;whiteSpace=wrap;rounded=0;fontSize=16;" vertex="1" parent="1">
          <mxGeometry x="420" y="380" width="60" height="30" as="geometry" />
        </mxCell>
        <mxCell id="3RPo9nHE_TcLEaqS_kai-13" style="edgeStyle=none;curved=1;rounded=0;orthogonalLoop=1;jettySize=auto;html=1;exitX=0.5;exitY=0;exitDx=0;exitDy=0;entryX=0.5;entryY=1;entryDx=0;entryDy=0;fontSize=12;startSize=8;endSize=8;" edge="1" parent="1" source="3RPo9nHE_TcLEaqS_kai-9" target="3RPo9nHE_TcLEaqS_kai-12">
          <mxGeometry relative="1" as="geometry" />
        </mxCell>
        <mxCell id="3RPo9nHE_TcLEaqS_kai-9" value="" style="rounded=0;whiteSpace=wrap;html=1;" vertex="1" parent="1">
          <mxGeometry x="540" y="270" width="170" height="100" as="geometry" />
        </mxCell>
        <mxCell id="3RPo9nHE_TcLEaqS_kai-11" value="Заповніть форму реєстрації (можливо заплатіть внесок)" style="text;html=1;align=center;verticalAlign=middle;whiteSpace=wrap;rounded=0;fontSize=16;" vertex="1" parent="1">
          <mxGeometry x="535" y="305" width="180" height="30" as="geometry" />
        </mxCell>
        <mxCell id="3RPo9nHE_TcLEaqS_kai-14" style="edgeStyle=none;curved=1;rounded=0;orthogonalLoop=1;jettySize=auto;html=1;exitX=0;exitY=0.5;exitDx=0;exitDy=0;fontSize=12;startSize=8;endSize=8;" edge="1" parent="1" source="3RPo9nHE_TcLEaqS_kai-12" target="3RPo9nHE_TcLEaqS_kai-3">
          <mxGeometry relative="1" as="geometry" />
        </mxCell>
        <mxCell id="3RPo9nHE_TcLEaqS_kai-12" value="" style="rounded=0;whiteSpace=wrap;html=1;" vertex="1" parent="1">
          <mxGeometry x="560" y="180" width="120" height="60" as="geometry" />
        </mxCell>
        <mxCell id="3RPo9nHE_TcLEaqS_kai-15" value="Отримайте читацький квиток" style="text;html=1;align=center;verticalAlign=middle;whiteSpace=wrap;rounded=0;fontSize=16;" vertex="1" parent="1">
          <mxGeometry x="590" y="195" width="60" height="30" as="geometry" />
        </mxCell>
        <mxCell id="3RPo9nHE_TcLEaqS_kai-16" value="Ні" style="text;html=1;align=center;verticalAlign=middle;whiteSpace=wrap;rounded=0;fontSize=16;" vertex="1" parent="1">
          <mxGeometry x="474" y="306" width="60" height="30" as="geometry" />
        </mxCell>
        <mxCell id="3RPo9nHE_TcLEaqS_kai-20" style="edgeStyle=none;curved=1;rounded=0;orthogonalLoop=1;jettySize=auto;html=1;exitX=0;exitY=0.5;exitDx=0;exitDy=0;entryX=1;entryY=0.5;entryDx=0;entryDy=0;fontSize=12;startSize=8;endSize=8;" edge="1" parent="1" source="3RPo9nHE_TcLEaqS_kai-17">
          <mxGeometry relative="1" as="geometry">
            <mxPoint x="279.9999999999999" y="540" as="targetPoint" />
            <Array as="points">
              <mxPoint x="350" y="530" />
            </Array>
          </mxGeometry>
        </mxCell>
        <mxCell id="3RPo9nHE_TcLEaqS_kai-58" style="edgeStyle=none;curved=1;rounded=0;orthogonalLoop=1;jettySize=auto;html=1;exitX=1;exitY=0.5;exitDx=0;exitDy=0;entryX=0;entryY=0.5;entryDx=0;entryDy=0;fontSize=12;startSize=8;endSize=8;" edge="1" parent="1" source="3RPo9nHE_TcLEaqS_kai-17" target="3RPo9nHE_TcLEaqS_kai-57">
          <mxGeometry relative="1" as="geometry" />
        </mxCell>
        <mxCell id="3RPo9nHE_TcLEaqS_kai-62" style="edgeStyle=none;curved=1;rounded=0;orthogonalLoop=1;jettySize=auto;html=1;exitX=0.5;exitY=1;exitDx=0;exitDy=0;entryX=0;entryY=0.5;entryDx=0;entryDy=0;fontSize=12;startSize=8;endSize=8;" edge="1" parent="1" source="3RPo9nHE_TcLEaqS_kai-17" target="3RPo9nHE_TcLEaqS_kai-61">
          <mxGeometry relative="1" as="geometry" />
        </mxCell>
        <mxCell id="3RPo9nHE_TcLEaqS_kai-67" style="edgeStyle=none;curved=1;rounded=0;orthogonalLoop=1;jettySize=auto;html=1;exitX=0.5;exitY=1;exitDx=0;exitDy=0;entryX=0;entryY=0.5;entryDx=0;entryDy=0;fontSize=12;startSize=8;endSize=8;" edge="1" parent="1" source="3RPo9nHE_TcLEaqS_kai-17" target="3RPo9nHE_TcLEaqS_kai-66">
          <mxGeometry relative="1" as="geometry">
            <Array as="points">
              <mxPoint x="420" y="670" />
            </Array>
          </mxGeometry>
        </mxCell>
        <mxCell id="3RPo9nHE_TcLEaqS_kai-72" style="edgeStyle=none;curved=1;rounded=0;orthogonalLoop=1;jettySize=auto;html=1;exitX=0;exitY=0;exitDx=0;exitDy=0;entryX=1;entryY=1;entryDx=0;entryDy=0;fontSize=12;startSize=8;endSize=8;" edge="1" parent="1" source="3RPo9nHE_TcLEaqS_kai-17" target="3RPo9nHE_TcLEaqS_kai-71">
          <mxGeometry relative="1" as="geometry" />
        </mxCell>
        <mxCell id="3RPo9nHE_TcLEaqS_kai-17" value="" style="rhombus;whiteSpace=wrap;html=1;" vertex="1" parent="1">
          <mxGeometry x="364" y="420" width="110" height="110" as="geometry" />
        </mxCell>
        <mxCell id="3RPo9nHE_TcLEaqS_kai-18" value="Вибір дії" style="text;html=1;align=center;verticalAlign=middle;whiteSpace=wrap;rounded=0;fontSize=16;" vertex="1" parent="1">
          <mxGeometry x="388" y="460" width="60" height="30" as="geometry" />
        </mxCell>
        <mxCell id="3RPo9nHE_TcLEaqS_kai-21" value="Взяти нову книгу" style="text;html=1;align=center;verticalAlign=middle;whiteSpace=wrap;rounded=0;fontSize=16;" vertex="1" parent="1">
          <mxGeometry x="274" y="480" width="90" height="30" as="geometry" />
        </mxCell>
        <mxCell id="3RPo9nHE_TcLEaqS_kai-26" style="edgeStyle=none;curved=1;rounded=0;orthogonalLoop=1;jettySize=auto;html=1;exitX=0.5;exitY=1;exitDx=0;exitDy=0;entryX=0.5;entryY=0;entryDx=0;entryDy=0;fontSize=12;startSize=8;endSize=8;" edge="1" parent="1" source="3RPo9nHE_TcLEaqS_kai-23" target="3RPo9nHE_TcLEaqS_kai-25">
          <mxGeometry relative="1" as="geometry" />
        </mxCell>
        <mxCell id="3RPo9nHE_TcLEaqS_kai-28" style="edgeStyle=none;curved=1;rounded=0;orthogonalLoop=1;jettySize=auto;html=1;exitX=0.5;exitY=1;exitDx=0;exitDy=0;entryX=0.5;entryY=0;entryDx=0;entryDy=0;fontSize=12;startSize=8;endSize=8;" edge="1" parent="1" source="3RPo9nHE_TcLEaqS_kai-23" target="3RPo9nHE_TcLEaqS_kai-27">
          <mxGeometry relative="1" as="geometry" />
        </mxCell>
        <mxCell id="3RPo9nHE_TcLEaqS_kai-23" value="" style="rhombus;whiteSpace=wrap;html=1;" vertex="1" parent="1">
          <mxGeometry x="170" y="490" width="110" height="105" as="geometry" />
        </mxCell>
        <mxCell id="3RPo9nHE_TcLEaqS_kai-24" value="Тип пошуку" style="text;html=1;align=center;verticalAlign=middle;whiteSpace=wrap;rounded=0;fontSize=16;" vertex="1" parent="1">
          <mxGeometry x="195" y="528" width="60" height="30" as="geometry" />
        </mxCell>
        <mxCell id="3RPo9nHE_TcLEaqS_kai-35" style="edgeStyle=none;curved=1;rounded=0;orthogonalLoop=1;jettySize=auto;html=1;exitX=0.5;exitY=1;exitDx=0;exitDy=0;entryX=1;entryY=0.5;entryDx=0;entryDy=0;fontSize=12;startSize=8;endSize=8;" edge="1" parent="1" source="3RPo9nHE_TcLEaqS_kai-25" target="3RPo9nHE_TcLEaqS_kai-33">
          <mxGeometry relative="1" as="geometry" />
        </mxCell>
        <mxCell id="3RPo9nHE_TcLEaqS_kai-25" value="" style="rounded=0;whiteSpace=wrap;html=1;" vertex="1" parent="1">
          <mxGeometry x="280" y="650" width="110" height="70" as="geometry" />
        </mxCell>
        <mxCell id="3RPo9nHE_TcLEaqS_kai-34" style="edgeStyle=none;curved=1;rounded=0;orthogonalLoop=1;jettySize=auto;html=1;exitX=0.5;exitY=1;exitDx=0;exitDy=0;entryX=0;entryY=0.5;entryDx=0;entryDy=0;fontSize=12;startSize=8;endSize=8;" edge="1" parent="1" source="3RPo9nHE_TcLEaqS_kai-27" target="3RPo9nHE_TcLEaqS_kai-33">
          <mxGeometry relative="1" as="geometry" />
        </mxCell>
        <mxCell id="3RPo9nHE_TcLEaqS_kai-27" value="" style="rounded=0;whiteSpace=wrap;html=1;" vertex="1" parent="1">
          <mxGeometry x="40" y="650" width="170" height="80" as="geometry" />
        </mxCell>
        <mxCell id="3RPo9nHE_TcLEaqS_kai-29" value="Шукайте на полицях у потрібному вам відділі" style="text;html=1;align=center;verticalAlign=middle;whiteSpace=wrap;rounded=0;fontSize=16;" vertex="1" parent="1">
          <mxGeometry x="50" y="675" width="160" height="35" as="geometry" />
        </mxCell>
        <mxCell id="3RPo9nHE_TcLEaqS_kai-30" value="На полицях" style="text;html=1;align=center;verticalAlign=middle;whiteSpace=wrap;rounded=0;fontSize=16;" vertex="1" parent="1">
          <mxGeometry x="120" y="585" width="60" height="30" as="geometry" />
        </mxCell>
        <mxCell id="3RPo9nHE_TcLEaqS_kai-31" value="Шукайте за каталогом" style="text;html=1;align=center;verticalAlign=middle;whiteSpace=wrap;rounded=0;fontSize=16;" vertex="1" parent="1">
          <mxGeometry x="305" y="670" width="60" height="30" as="geometry" />
        </mxCell>
        <mxCell id="3RPo9nHE_TcLEaqS_kai-32" value="За каталогом" style="text;html=1;align=center;verticalAlign=middle;whiteSpace=wrap;rounded=0;fontSize=16;" vertex="1" parent="1">
          <mxGeometry x="283" y="585" width="60" height="30" as="geometry" />
        </mxCell>
        <mxCell id="3RPo9nHE_TcLEaqS_kai-37" style="edgeStyle=none;curved=1;rounded=0;orthogonalLoop=1;jettySize=auto;html=1;exitX=0.5;exitY=0;exitDx=0;exitDy=0;entryX=0.5;entryY=1;entryDx=0;entryDy=0;fontSize=12;startSize=8;endSize=8;" edge="1" parent="1" source="3RPo9nHE_TcLEaqS_kai-33" target="3RPo9nHE_TcLEaqS_kai-23">
          <mxGeometry relative="1" as="geometry" />
        </mxCell>
        <mxCell id="3RPo9nHE_TcLEaqS_kai-41" style="edgeStyle=none;curved=1;rounded=0;orthogonalLoop=1;jettySize=auto;html=1;exitX=0.5;exitY=1;exitDx=0;exitDy=0;entryX=0;entryY=0.5;entryDx=0;entryDy=0;fontSize=12;startSize=8;endSize=8;" edge="1" parent="1" source="3RPo9nHE_TcLEaqS_kai-33" target="3RPo9nHE_TcLEaqS_kai-40">
          <mxGeometry relative="1" as="geometry" />
        </mxCell>
        <mxCell id="3RPo9nHE_TcLEaqS_kai-33" value="" style="rhombus;whiteSpace=wrap;html=1;" vertex="1" parent="1">
          <mxGeometry x="195" y="750" width="110" height="120" as="geometry" />
        </mxCell>
        <mxCell id="3RPo9nHE_TcLEaqS_kai-36" value="Знийшли потрібну книгу?" style="text;html=1;align=center;verticalAlign=middle;whiteSpace=wrap;rounded=0;fontSize=16;" vertex="1" parent="1">
          <mxGeometry x="220" y="800" width="60" height="30" as="geometry" />
        </mxCell>
        <mxCell id="3RPo9nHE_TcLEaqS_kai-38" value="Ні" style="text;html=1;align=center;verticalAlign=middle;whiteSpace=wrap;rounded=0;fontSize=16;" vertex="1" parent="1">
          <mxGeometry x="195" y="721" width="60" height="30" as="geometry" />
        </mxCell>
        <mxCell id="3RPo9nHE_TcLEaqS_kai-44" style="edgeStyle=none;curved=1;rounded=0;orthogonalLoop=1;jettySize=auto;html=1;exitX=0;exitY=1;exitDx=0;exitDy=0;entryX=1;entryY=0;entryDx=0;entryDy=0;fontSize=12;startSize=8;endSize=8;" edge="1" parent="1" source="3RPo9nHE_TcLEaqS_kai-40" target="3RPo9nHE_TcLEaqS_kai-43">
          <mxGeometry relative="1" as="geometry" />
        </mxCell>
        <mxCell id="3RPo9nHE_TcLEaqS_kai-49" style="edgeStyle=none;curved=1;rounded=0;orthogonalLoop=1;jettySize=auto;html=1;exitX=1;exitY=0.5;exitDx=0;exitDy=0;entryX=0;entryY=0.5;entryDx=0;entryDy=0;fontSize=12;startSize=8;endSize=8;" edge="1" parent="1" source="3RPo9nHE_TcLEaqS_kai-40" target="3RPo9nHE_TcLEaqS_kai-48">
          <mxGeometry relative="1" as="geometry" />
        </mxCell>
        <mxCell id="3RPo9nHE_TcLEaqS_kai-40" value="" style="rhombus;whiteSpace=wrap;html=1;" vertex="1" parent="1">
          <mxGeometry x="290" y="870" width="116" height="120" as="geometry" />
        </mxCell>
        <mxCell id="3RPo9nHE_TcLEaqS_kai-42" value="Книга доступна?" style="text;html=1;align=center;verticalAlign=middle;whiteSpace=wrap;rounded=0;fontSize=16;" vertex="1" parent="1">
          <mxGeometry x="318" y="915" width="60" height="30" as="geometry" />
        </mxCell>
        <mxCell id="3RPo9nHE_TcLEaqS_kai-43" value="" style="rounded=0;whiteSpace=wrap;html=1;" vertex="1" parent="1">
          <mxGeometry x="130" y="990" width="150" height="60" as="geometry" />
        </mxCell>
        <mxCell id="3RPo9nHE_TcLEaqS_kai-45" value="Почекайте або замовте книгу" style="text;html=1;align=center;verticalAlign=middle;whiteSpace=wrap;rounded=0;fontSize=16;" vertex="1" parent="1">
          <mxGeometry x="140" y="1005" width="130" height="30" as="geometry" />
        </mxCell>
        <mxCell id="3RPo9nHE_TcLEaqS_kai-46" value="Ні" style="text;html=1;align=center;verticalAlign=middle;whiteSpace=wrap;rounded=0;fontSize=16;" vertex="1" parent="1">
          <mxGeometry x="255" y="945" width="60" height="30" as="geometry" />
        </mxCell>
        <mxCell id="3RPo9nHE_TcLEaqS_kai-47" value="Так" style="text;html=1;align=center;verticalAlign=middle;whiteSpace=wrap;rounded=0;fontSize=16;" vertex="1" parent="1">
          <mxGeometry x="255" y="870" width="60" height="30" as="geometry" />
        </mxCell>
        <mxCell id="3RPo9nHE_TcLEaqS_kai-52" style="edgeStyle=none;curved=1;rounded=0;orthogonalLoop=1;jettySize=auto;html=1;exitX=0.5;exitY=0;exitDx=0;exitDy=0;fontSize=12;startSize=8;endSize=8;" edge="1" parent="1" source="3RPo9nHE_TcLEaqS_kai-48">
          <mxGeometry relative="1" as="geometry">
            <mxPoint x="535.3529411764707" y="880" as="targetPoint" />
          </mxGeometry>
        </mxCell>
        <mxCell id="3RPo9nHE_TcLEaqS_kai-48" value="" style="rounded=0;whiteSpace=wrap;html=1;" vertex="1" parent="1">
          <mxGeometry x="470" y="945" width="130" height="85" as="geometry" />
        </mxCell>
        <mxCell id="3RPo9nHE_TcLEaqS_kai-50" value="Покажіть читацький квиток бібліотекарю" style="text;html=1;align=center;verticalAlign=middle;whiteSpace=wrap;rounded=0;fontSize=16;" vertex="1" parent="1">
          <mxGeometry x="505" y="972.5" width="60" height="30" as="geometry" />
        </mxCell>
        <mxCell id="3RPo9nHE_TcLEaqS_kai-51" style="edgeStyle=none;curved=1;rounded=0;orthogonalLoop=1;jettySize=auto;html=1;exitX=0.75;exitY=1;exitDx=0;exitDy=0;fontSize=12;startSize=8;endSize=8;" edge="1" parent="1" source="3RPo9nHE_TcLEaqS_kai-50" target="3RPo9nHE_TcLEaqS_kai-50">
          <mxGeometry relative="1" as="geometry" />
        </mxCell>
        <mxCell id="3RPo9nHE_TcLEaqS_kai-56" style="edgeStyle=none;curved=1;rounded=0;orthogonalLoop=1;jettySize=auto;html=1;exitX=0.5;exitY=0;exitDx=0;exitDy=0;fontSize=12;startSize=8;endSize=8;entryX=1;entryY=1;entryDx=0;entryDy=0;" edge="1" parent="1" source="3RPo9nHE_TcLEaqS_kai-53" target="3RPo9nHE_TcLEaqS_kai-17">
          <mxGeometry relative="1" as="geometry">
            <mxPoint x="490" y="750" as="targetPoint" />
          </mxGeometry>
        </mxCell>
        <mxCell id="3RPo9nHE_TcLEaqS_kai-53" value="" style="rounded=0;whiteSpace=wrap;html=1;" vertex="1" parent="1">
          <mxGeometry x="440" y="820" width="154" height="60" as="geometry" />
        </mxCell>
        <mxCell id="3RPo9nHE_TcLEaqS_kai-54" value="Бібліотекар оформляє книгу на видачу" style="text;html=1;align=center;verticalAlign=middle;whiteSpace=wrap;rounded=0;fontSize=16;" vertex="1" parent="1">
          <mxGeometry x="448" y="835" width="146" height="30" as="geometry" />
        </mxCell>
        <mxCell id="3RPo9nHE_TcLEaqS_kai-57" value="" style="rounded=0;whiteSpace=wrap;html=1;" vertex="1" parent="1">
          <mxGeometry x="550" y="445" width="120" height="60" as="geometry" />
        </mxCell>
        <mxCell id="3RPo9nHE_TcLEaqS_kai-59" value="Ідіть з бібліотеки" style="text;html=1;align=center;verticalAlign=middle;whiteSpace=wrap;rounded=0;fontSize=16;" vertex="1" parent="1">
          <mxGeometry x="580" y="460" width="60" height="30" as="geometry" />
        </mxCell>
        <mxCell id="3RPo9nHE_TcLEaqS_kai-60" value="Піти з бібліотеки" style="text;html=1;align=center;verticalAlign=middle;whiteSpace=wrap;rounded=0;fontSize=16;" vertex="1" parent="1">
          <mxGeometry x="480" y="430" width="60" height="30" as="geometry" />
        </mxCell>
        <mxCell id="3RPo9nHE_TcLEaqS_kai-64" style="edgeStyle=none;curved=1;rounded=0;orthogonalLoop=1;jettySize=auto;html=1;exitX=0.5;exitY=0;exitDx=0;exitDy=0;fontSize=12;startSize=8;endSize=8;" edge="1" parent="1" source="3RPo9nHE_TcLEaqS_kai-61" target="3RPo9nHE_TcLEaqS_kai-17">
          <mxGeometry relative="1" as="geometry" />
        </mxCell>
        <mxCell id="3RPo9nHE_TcLEaqS_kai-61" value="" style="rounded=0;whiteSpace=wrap;html=1;" vertex="1" parent="1">
          <mxGeometry x="550" y="558" width="140" height="72" as="geometry" />
        </mxCell>
        <mxCell id="3RPo9nHE_TcLEaqS_kai-63" value="Поверніть книгу бібліотекарю, вона зніметься з обліку" style="text;html=1;align=center;verticalAlign=middle;whiteSpace=wrap;rounded=0;fontSize=16;" vertex="1" parent="1">
          <mxGeometry x="531.5" y="579" width="177" height="30" as="geometry" />
        </mxCell>
        <mxCell id="3RPo9nHE_TcLEaqS_kai-65" value="Повернути книгу" style="text;html=1;align=center;verticalAlign=middle;whiteSpace=wrap;rounded=0;fontSize=16;" vertex="1" parent="1">
          <mxGeometry x="474" y="530" width="60" height="30" as="geometry" />
        </mxCell>
        <mxCell id="3RPo9nHE_TcLEaqS_kai-70" style="edgeStyle=none;curved=1;rounded=0;orthogonalLoop=1;jettySize=auto;html=1;exitX=1;exitY=0;exitDx=0;exitDy=0;fontSize=12;startSize=8;endSize=8;entryX=0.57;entryY=0.088;entryDx=0;entryDy=0;entryPerimeter=0;" edge="1" parent="1" source="3RPo9nHE_TcLEaqS_kai-66" target="3RPo9nHE_TcLEaqS_kai-17">
          <mxGeometry relative="1" as="geometry">
            <mxPoint x="530" y="410" as="targetPoint" />
            <Array as="points">
              <mxPoint x="790" y="510" />
              <mxPoint x="740" y="400" />
            </Array>
          </mxGeometry>
        </mxCell>
        <mxCell id="3RPo9nHE_TcLEaqS_kai-66" value="" style="rounded=0;whiteSpace=wrap;html=1;" vertex="1" parent="1">
          <mxGeometry x="560" y="690" width="170" height="110" as="geometry" />
        </mxCell>
        <mxCell id="3RPo9nHE_TcLEaqS_kai-68" value="&lt;font style=&quot;font-size: 13px;&quot;&gt;Скористатися читацьким залом&lt;/font&gt;" style="text;html=1;align=center;verticalAlign=middle;whiteSpace=wrap;rounded=0;fontSize=16;" vertex="1" parent="1">
          <mxGeometry x="346" y="550" width="60" height="30" as="geometry" />
        </mxCell>
        <mxCell id="3RPo9nHE_TcLEaqS_kai-69" value="Знайдіть вільне місце у читальному залі та працюйте з матеріалами" style="text;html=1;align=center;verticalAlign=middle;whiteSpace=wrap;rounded=0;fontSize=16;" vertex="1" parent="1">
          <mxGeometry x="570" y="730" width="160" height="30" as="geometry" />
        </mxCell>
        <mxCell id="3RPo9nHE_TcLEaqS_kai-71" value="" style="rounded=0;whiteSpace=wrap;html=1;" vertex="1" parent="1">
          <mxGeometry x="170" y="310" width="160" height="80" as="geometry" />
        </mxCell>
        <mxCell id="3RPo9nHE_TcLEaqS_kai-73" value="Інші послуги" style="text;html=1;align=center;verticalAlign=middle;whiteSpace=wrap;rounded=0;fontSize=16;" vertex="1" parent="1">
          <mxGeometry x="343" y="390" width="60" height="30" as="geometry" />
        </mxCell>
        <mxCell id="3RPo9nHE_TcLEaqS_kai-74" value="Виберіть послугу та користуйтеся (комп&#39;ютер, принер, сканер...)" style="text;html=1;align=center;verticalAlign=middle;whiteSpace=wrap;rounded=0;fontSize=16;" vertex="1" parent="1">
          <mxGeometry x="174" y="335" width="156" height="30" as="geometry" />
        </mxCell>
        <mxCell id="3RPo9nHE_TcLEaqS_kai-75" style="edgeStyle=none;curved=1;rounded=0;orthogonalLoop=1;jettySize=auto;html=1;exitX=0.5;exitY=1;exitDx=0;exitDy=0;entryX=0.103;entryY=0.386;entryDx=0;entryDy=0;entryPerimeter=0;fontSize=12;startSize=8;endSize=8;" edge="1" parent="1" source="3RPo9nHE_TcLEaqS_kai-71" target="3RPo9nHE_TcLEaqS_kai-17">
          <mxGeometry relative="1" as="geometry" />
        </mxCell>
      </root>
    </mxGraphModel>
  </diagram>
</mxfile>
